<?xml version="1.0" encoding="utf-8"?>
<!-- Generator: Adobe Illustrator 23.0.3, SVG Export Plug-In . SVG Version: 6.00 Build 0)  -->
<svg version="1.1" id="圖層_1" xmlns="http://www.w3.org/2000/svg" xmlns:xlink="http://www.w3.org/1999/xlink" x="0px" y="0px"
	 viewBox="0 0 440 130" style="enable-background:new 0 0 440 130;" xml:space="preserve">
<style type="text/css">
	.st0{fill:#323333;}
	.st1{enable-background:new    ;}
	.st2{fill:#313333;}
</style>
<g>
	<path d="M80.9,60.6c-1,2.3-4.2,2.3-5.1,0c-0.5-1.2-2.5-0.7-2,0.5c1.8,4.2,7.3,4.2,9.1,0C83.4,59.9,81.4,59.4,80.9,60.6z"/>
	<path d="M94.9,72.3c-3,3.2-7.6,3.4-10.9,0.7c-1-0.8-2.3,0.7-1.3,1.6c4.3,3.5,10,3.1,13.8-0.9C97.4,72.7,95.8,71.4,94.9,72.3z"/>
	<path d="M131.2,65.8c-4.6-3.5-9.6-6.6-14.3-9.9c-0.6-0.4-1.3,0.1-1.2,0.8c0.2,4.1-2.8,6.9-6.9,7.3c-0.1,0-0.1,0-0.2,0
		s-0.2,0-0.2,0.1l0,0l0,0c-0.2,0.1-0.3,0.3-0.3,0.5c-2.6,8.5-7.3,22.5-9.9,31l0,0c-0.2,0.5-0.7,0.7-1.2,0.6
		c-0.5-0.2-0.8-0.7-0.6-1.2l4.6-15.2l-2-1.4l0,0c0.1-0.2,0.1-0.4,0.2-0.6c1.9-3,2.9-7,2.9-11.5c1.5-1.4,2.4-3.6,2.4-6
		c0-2.7-1.1-5.2-3-6.5c0,0-0.7-0.5-1.7-0.7l-0.5-1.9c6.3-1.4,8.9-8.3,4.8-7.6c-4.4,0.7-5.2-1-5.2-1c8.2-2.2,9.9-8.9,5-6.9
		c-5,2-16.6-9.5-25.3-11.1c-6.6-1.2-11.3-0.1-14.5,1.7c0.6-2.2,2.2-3.2-0.2-2.4c-4.6,1.6-7.3,6.3-8.5,9.2c-2.3,0.4-5.3,1.6-6.8,4.6
		c-1.1,2.2-0.1,1,2,0.6c-2.3,6.5,0.3,17.3,1,19.9c-0.3,0.1-0.6,0.2-0.9,0.4l0,0c0,0-2.5,1.5-2.1,4.7c0,0.2,0,0.3,0.1,0.5
		c0,0.1,0,0.1,0,0.2c0.8,3.8,2.9,7.9,6.3,7.9c0.3,0,1.1-0.1,1.5-0.2c0.7,1.6,2.2,4.6,3.7,6.3l-2.6,4c-0.1,0.1-0.2,0.3-0.3,0.4
		c-0.2,0.3-0.3,0.4-0.3,0.5l-8.5,5.8c8.8,13.6,24.1,22.6,41.4,22.6c11.8,0,22.6-4.2,31.1-11.1l0,0c0.4-0.4,0.8-0.9,1.2-1.6
		c1.7-3.4,3.1-7,4.6-10.5c1.4-3.2,4.8-12,6.2-15.3C134.3,70,133.7,67.7,131.2,65.8z M96.5,58.5c-0.4,0.7-1.3,1-2.1,0.8
		c0.3-2.5,1.9-4.4,3.7-4.6c1.2,3.5,1.9,7.3,2.1,10.7C99.6,65.8,99,66,98.4,66c-2,0-3.7-2-4-4.6c1.5,0.2,3.1-0.4,3.9-1.8
		C98.9,58.4,97.2,57.3,96.5,58.5z M102.5,60.3c0,1.1-0.2,2.1-0.7,3.1c-0.2-2.7-0.8-5.5-1.6-8.1C101.6,56.2,102.5,58.2,102.5,60.3z
		 M71.2,84.8c2.2,0.4,4.7,0.6,7.7,0.6c0.6,0,1.3,0,2,0c4-0.1,8.2-0.4,11.7-2c0.3-0.1,0.6-0.3,1-0.5C89.1,96,71.2,84.8,71.2,84.8z
		 M95.1,79.7L95.1,79.7C95.1,79.8,95.1,79.8,95.1,79.7C95.1,79.8,95.1,79.8,95.1,79.7c-0.1,0.1-0.2,0.2-0.3,0.2c0,0-0.1,0-0.1,0.1
		c-0.1,0.1-0.2,0.2-0.3,0.3c0,0,0,0-0.1,0.1c-5.6,4.2-19.2,2.5-19.2,2.5l0,0c-1.6-0.3-3.3-0.6-4.9-1.1l0,0l0,0
		c-0.2-0.1-0.4-0.1-0.5-0.2c-0.4-0.1-0.9-0.3-1.4-0.4c0,0-0.1,0-0.1-0.1c-6.8-2.7-9.4-10-9.9-11.3c-0.1-0.5-0.5-0.8-0.9-0.8
		c-0.2,0-0.3,0-0.5,0.1c-0.8,0.5-1.5,0.8-2.2,0.8c-2.1,0-3.3-2.5-4-4.5l0,0l0,0v-0.1c-0.2-0.6-1.1-3.7,0.6-4.8
		c1.6-1.1,3.5-0.3,4.6,0.4c0.7,0.6,1.3,1.2,1.7,1.7c0.2,0.2,0.4,0.3,0.6,0.3c0.5,0,0.9-0.4,1-0.9c0.1-1,0.1-2,0-3c0,0,0-0.3,0-0.7
		c0.2-1.9,0.7-3.4,1.4-4.7c5.7-9.8,26.6-1.7,36.6-2.2l0.5,1.6c-1.1,0.2-2.2,0.7-3.4,2c-0.7,0.8-1.2,1.8-1.5,3
		c-0.3-0.2-0.6-0.4-1-0.5c-0.3-0.1-0.7-0.1-1.1-0.1c-1.8,0-3.8,1-5.2,1.9c-0.5-1.4-1.4-2.7-2.6-3.6c-0.5-0.3-4.9-3.1-9.8,0.1
		c-1.9,1.5-3,3.7-3,6.2c0,4.4,3.6,7.9,7.9,7.9c4.4,0,7.9-3.6,7.9-7.9c0-0.3,0-0.5,0-0.8c0.8-0.5,3-2,4.7-2c0.2,0,0.4,0,0.6,0.1
		c0.5,0.2,0.9,0.6,1.2,1.2c0.1,4,2.7,7.3,5.9,7.3c0.6,0,1.2-0.1,1.8-0.3c-0.1,2.3-0.5,4.4-1.1,6.3C99.1,73.8,97.7,77.6,95.1,79.7z
		 M84.2,62.1c0,3.4-2.7,6.1-6.1,6.1S72,65.5,72,62.1s2.7-6.1,6.1-6.1C81.4,55.9,84.2,58.7,84.2,62.1z M131.1,71.9
		c-2.8,0.9-9.2-2.6-10.7-3.2c-3-1.2-6-2.5-9.1-3.7c0.4-0.2,0.9-0.3,1.3-0.5c4.9,2.2,12.7,5.2,11.7,4.5c-0.8-0.6-7.4-4-10.3-5.5
		c0.3-0.2,0.6-0.5,0.8-0.8c3.9,2,9.4,4.5,8.9,3.7c-0.2-0.4-5.6-3.3-8.1-4.6c0.2-0.3,0.4-0.7,0.6-1.1c4.6,2.7,11.7,6.2,10.8,5.4
		c-0.8-0.8-8.3-5.7-10.3-7c0.1-0.3,0.1-0.7,0.2-1.1c4.1,2.8,8.3,5.7,12.4,8.5c1.4,1,2.8,2,2.7,3.9C132.2,70.7,132,71.6,131.1,71.9z"
		/>
</g>
<path class="st0" d="M195.3,52.1c0,1.8-0.3,3.4-0.8,4.9c-0.5,1.4-1.2,2.7-2.1,3.6c-0.9,1-1.9,1.8-3,2.3s-2.3,0.8-3.6,0.8
	c-1.2,0-2.3-0.1-3.2-0.4c-0.9-0.3-1.8-0.7-2.7-1.2l-0.2,1h-3.4V32.9h3.6v10.8c1-0.8,2.1-1.5,3.3-2.1c1.2-0.5,2.4-0.8,3.9-0.8
	c2.6,0,4.6,1,6.1,2.9C194.6,45.7,195.3,48.5,195.3,52.1z M191.5,52.2c0-2.6-0.4-4.5-1.3-5.9c-0.9-1.3-2.2-2-4.1-2
	c-1.1,0-2.1,0.2-3.2,0.7c-1.1,0.5-2.1,1.1-3,1.8v12.4c1,0.5,1.9,0.8,2.7,1c0.7,0.2,1.6,0.3,2.5,0.3c2,0,3.6-0.7,4.7-2
	C191,57.1,191.5,55,191.5,52.2z"/>
<path class="st0" d="M221.4,52.3c0,3.5-0.9,6.3-2.7,8.4c-1.8,2-4.2,3.1-7.3,3.1s-5.5-1-7.3-3.1c-1.8-2-2.7-4.8-2.7-8.4
	s0.9-6.3,2.7-8.4c1.8-2,4.2-3.1,7.3-3.1c3,0,5.5,1,7.3,3.1C220.5,45.9,221.4,48.7,221.4,52.3z M217.7,52.3c0-2.8-0.6-4.9-1.6-6.3
	c-1.1-1.4-2.6-2-4.6-2s-3.5,0.7-4.6,2c-1.1,1.4-1.6,3.4-1.6,6.3c0,2.7,0.5,4.8,1.6,6.2s2.6,2.1,4.6,2.1c1.9,0,3.5-0.7,4.6-2.1
	C217.1,57.1,217.7,55,217.7,52.3z"/>
<path class="st0" d="M247.5,52.3c0,3.5-0.9,6.3-2.7,8.4c-1.8,2-4.2,3.1-7.3,3.1s-5.5-1-7.3-3.1c-1.8-2-2.7-4.8-2.7-8.4
	s0.9-6.3,2.7-8.4c1.8-2,4.2-3.1,7.3-3.1c3,0,5.5,1,7.3,3.1C246.6,45.9,247.5,48.7,247.5,52.3z M243.8,52.3c0-2.8-0.6-4.9-1.6-6.3
	c-1.1-1.4-2.6-2-4.6-2s-3.5,0.7-4.6,2c-1.1,1.4-1.6,3.4-1.6,6.3c0,2.7,0.5,4.8,1.6,6.2s2.6,2.1,4.6,2.1c1.9,0,3.5-0.7,4.6-2.1
	C243.2,57.1,243.8,55,243.8,52.3z"/>
<path class="st0" d="M274.8,63.1H270l-8.7-9.5l-2.4,2.2V63h-3.6V32.9h3.6v19.4l10.5-10.8h4.6l-10.1,10L274.8,63.1z"/>
<path class="st0" d="M298.2,63.1h-3.6v-2.3c-1,0.9-2.1,1.6-3.3,2.1s-2.4,0.8-3.7,0.8c-2.6,0-4.6-1-6.2-3c-1.5-2-2.3-4.8-2.3-8.3
	c0-1.8,0.3-3.5,0.8-4.9s1.2-2.7,2.1-3.7s1.9-1.7,3.1-2.2s2.4-0.8,3.6-0.8c1.1,0,2.1,0.1,3,0.4c0.9,0.2,1.8,0.6,2.8,1.1v-9.4h3.6
	v30.2H298.2z M294.6,57.8V45.3c-1-0.4-1.9-0.7-2.6-0.9c-0.8-0.2-1.6-0.3-2.5-0.3c-2,0-3.6,0.7-4.8,2.1c-1.1,1.4-1.7,3.4-1.7,6.1
	c0,2.6,0.4,4.5,1.3,5.9c0.9,1.3,2.3,2,4.2,2c1,0,2.1-0.2,3.1-0.7C292.7,59.1,293.7,58.5,294.6,57.8z"/>
<path class="st0" d="M324.2,63.1h-3.6v-2.3c-0.3,0.2-0.8,0.5-1.3,0.9s-1.1,0.7-1.6,0.9c-0.6,0.3-1.3,0.5-2.1,0.7
	c-0.8,0.2-1.7,0.3-2.8,0.3c-2,0-3.6-0.6-5-1.9c-1.4-1.3-2-2.9-2-4.9c0-1.6,0.4-3,1.1-4s1.7-1.8,3-2.4c1.3-0.6,2.9-1,4.8-1.2
	c1.8-0.2,3.8-0.4,6-0.5v-0.6c0-0.8-0.1-1.5-0.4-2.1c-0.3-0.5-0.7-1-1.3-1.3c-0.5-0.3-1.1-0.5-1.9-0.6c-0.7-0.1-1.5-0.2-2.3-0.2
	c-1,0-2,0.1-3.2,0.4c-1.2,0.3-2.4,0.6-3.6,1.1h-0.2v-3.7c0.7-0.2,1.7-0.4,3.1-0.6c1.3-0.2,2.7-0.3,4-0.3c1.5,0,2.9,0.1,4,0.4
	c1.1,0.3,2.1,0.7,2.9,1.3s1.4,1.4,1.9,2.3c0.4,0.9,0.6,2.1,0.6,3.5v14.8H324.2z M320.6,57.8v-6c-1.1,0.1-2.4,0.2-3.9,0.3
	s-2.7,0.3-3.6,0.6c-1,0.3-1.9,0.8-2.5,1.4c-0.6,0.6-1,1.5-1,2.6c0,1.2,0.4,2.2,1.1,2.8s1.9,0.9,3.4,0.9c1.3,0,2.5-0.2,3.5-0.7
	C318.7,59,319.7,58.5,320.6,57.8z"/>
<path class="st0" d="M350.8,63.1h-3.6v-2.3c-1,0.9-2.1,1.6-3.3,2.1c-1.1,0.5-2.4,0.8-3.7,0.8c-2.6,0-4.6-1-6.2-3
	c-1.5-2-2.3-4.8-2.3-8.3c0-1.8,0.3-3.5,0.8-4.9s1.2-2.7,2.1-3.7s1.9-1.7,3.1-2.2s2.4-0.8,3.6-0.8c1.1,0,2.1,0.1,3,0.4
	c0.9,0.2,1.8,0.6,2.8,1.1v-9.4h3.6v30.2H350.8z M347.2,57.8V45.3c-1-0.4-1.9-0.7-2.6-0.9c-0.8-0.2-1.6-0.3-2.5-0.3
	c-2,0-3.6,0.7-4.8,2.1c-1.1,1.4-1.7,3.4-1.7,6.1c0,2.6,0.4,4.5,1.3,5.9c0.9,1.3,2.3,2,4.2,2c1,0,2.1-0.2,3.1-0.7
	C345.3,59.1,346.2,58.5,347.2,57.8z"/>
<path class="st0" d="M377.5,63.1h-3.6v-2.3c-1,0.9-2.1,1.6-3.3,2.1s-2.4,0.8-3.7,0.8c-2.6,0-4.6-1-6.2-3c-1.5-2-2.3-4.8-2.3-8.3
	c0-1.8,0.3-3.5,0.8-4.9s1.2-2.7,2.1-3.7s1.9-1.7,3.1-2.2s2.4-0.8,3.6-0.8c1.1,0,2.1,0.1,3,0.4c0.9,0.2,1.8,0.6,2.8,1.1v-9.4h3.6
	v30.2H377.5z M373.9,57.8V45.3c-1-0.4-1.9-0.7-2.6-0.9c-0.8-0.2-1.6-0.3-2.5-0.3c-2,0-3.6,0.7-4.8,2.1c-1.1,1.4-1.7,3.4-1.7,6.1
	c0,2.6,0.4,4.5,1.3,5.9c0.9,1.3,2.3,2,4.2,2c1,0,2.1-0.2,3.1-0.7C372,59.1,373,58.5,373.9,57.8z"/>
<path class="st0" d="M405.4,41.4l-12.6,29.7h-3.9l4-9l-8.6-20.6h4l6.7,16.1l6.7-16.1h3.7V41.4z"/>
<g class="st1">
	<path class="st2" d="M178.1,90h3.5v-4.2c-1,0.2-2.1,0.4-3.2,0.6c-0.5,0.1-0.8-0.1-1-0.6c-0.2-0.6,0-0.9,0.7-1.1
		c2.8-0.5,5.1-1.1,7-1.8c0.4-0.2,0.8,0,1.2,0.4c0.6,0.6,0.5,1.1-0.2,1.3c-1.2,0.4-1.9,0.6-2.4,0.7V90h2.5c0.6,0,1,0.3,1,0.9
		c0,0.6-0.3,1-1,1h-2.5v1.7c0.8,0.6,1.9,1.8,3.3,3.3c0.2,0.3,0.3,0.4,0.2,0.6c0,0.1-0.1,0.3-0.3,0.6c-0.3,0.4-0.5,0.6-0.7,0.6
		c-0.2,0-0.4-0.1-0.6-0.5c-0.5-0.8-1.2-1.6-1.9-2.5v10.8c0,0.6-0.3,1-1,1c-0.7,0-1-0.3-1-1V95.2c-1.1,2.7-2.2,4.8-3.3,6.3
		c-0.3,0.4-0.5,0.5-0.7,0.5s-0.4-0.3-0.6-0.7c-0.3-0.5-0.2-0.9,0.1-1.3c1.7-2.2,3.1-4.9,4.2-8.1h-3.2c-0.6,0-1-0.3-1-1
		C177.1,90.3,177.4,90,178.1,90z M191.1,88.2c-0.6,2.6-1.4,4.9-2.5,6.9c-0.2,0.3-0.4,0.5-0.6,0.6c-0.2,0-0.5,0-0.8-0.2
		c-0.3-0.2-0.5-0.4-0.6-0.6c0-0.2,0-0.4,0.2-0.8c0.9-1.6,1.7-3.7,2.2-6.2c0.1-0.7,0.5-1,1.2-0.9C191,87.1,191.3,87.5,191.1,88.2z
		 M200,97.3c-0.9,2.6-2.3,4.7-4.2,6.2c-1.9,1.6-4.3,2.8-7.2,3.6c-0.8,0.2-1.3,0-1.6-0.5c-0.4-0.7,0-1.2,1.1-1.5
		c2.6-0.7,4.7-1.7,6.3-3.1c1.6-1.4,2.8-3.1,3.6-5.3c0.2-0.7,0.6-0.9,1.3-0.8C200,96.2,200.2,96.6,200,97.3z M195.4,83.3v13.5
		c0,0.6-0.1,1-0.2,1.3c-0.1,0.3-0.4,0.5-0.8,0.7c-0.5,0.2-1.3,0.4-2.4,0.4c-0.8,0-1.3-0.3-1.5-0.8c-0.1-0.4-0.1-0.7,0.2-0.9
		c0.3-0.2,0.6-0.3,1.1-0.2c0.6,0,0.9,0,1.1,0c0.3,0,0.5-0.2,0.5-0.5V83.3c0-0.7,0.3-1,1-1C195.1,82.3,195.4,82.6,195.4,83.3z
		 M199.1,91.4c-0.4-1.2-0.9-2.3-1.4-3.2c-0.3-0.6-0.1-1,0.5-1.2c0.5-0.2,0.9,0,1.1,0.4c1.2,2.2,2.1,4.4,2.6,6.5
		c0.1,0.3,0,0.5-0.1,0.6c-0.1,0.1-0.3,0.3-0.6,0.4c-0.7,0.2-1.1,0-1.2-0.6C199.9,93.6,199.5,92.6,199.1,91.4z"/>
	<path class="st2" d="M221,88.6h-6v3.7h4.1c0.5,0,0.9,0.2,1.2,0.7c0.3,0.5,0.4,1.3,0.4,2.5c-0.1,3.8-0.2,6.5-0.4,8.1
		s-0.4,2.5-0.7,2.9c-0.4,0.5-0.9,0.8-1.6,0.9c-0.6,0-1.3,0-1.9,0c-0.7,0-1.1-0.3-1.3-0.8c-0.2-0.8,0.2-1.1,1.3-1h1
		c0.4,0,0.6-0.1,0.8-0.4c0.4-0.6,0.7-3.9,0.8-9.9c0-0.4,0-0.8-0.1-0.9c-0.1-0.2-0.2-0.2-0.4-0.2H215v0.2c0,2.5-0.2,4.7-0.7,6.7
		c-0.5,2-1.4,3.8-2.7,5.5c-0.6,0.6-1.1,0.7-1.6,0.3c-0.5-0.4-0.4-0.9,0.1-1.6c1.2-1.5,1.9-3.2,2.3-4.9c0.4-1.8,0.6-3.8,0.6-6v-5.7
		h-2.3c-0.6,0-0.9-0.3-0.9-0.9c0-0.6,0.3-0.9,0.9-0.9h4.1v-3.5c0-0.6,0.3-1,1-1c0.6,0,1,0.3,1,1v3.5h4.2c0.6,0,0.9,0.3,0.9,0.9
		C221.9,88.3,221.6,88.6,221,88.6z M226.1,87.4h7.8c0.6,0,0.9,0.3,0.9,0.9c0,0.6-0.3,1-0.9,1h-1.1c-0.8,4.7-2,8.3-3.6,11
		c1.2,2,2.8,3.6,4.6,4.7c0.8,0.4,1,1,0.5,1.6c-0.4,0.5-0.9,0.6-1.6,0.2c-1.8-1.2-3.4-2.7-4.7-4.8c-1.4,1.9-3.3,3.5-5.7,4.9
		c-0.7,0.3-1.2,0.3-1.5-0.3c-0.4-0.7-0.2-1.2,0.6-1.6c2.3-1.2,4.2-2.9,5.6-4.9c-1-2-1.9-4.5-2.7-7.5c-0.2,0.4-0.5,1.1-1.1,2.1
		c-0.4,0.7-0.9,0.8-1.6,0.3c-0.5-0.4-0.6-0.9-0.3-1.4c1.5-2.4,2.7-5.8,3.6-10.3c0.1-0.8,0.5-1.1,1.2-1c0.7,0.1,1,0.5,0.9,1.2
		C226.7,85,226.4,86.2,226.1,87.4z M230.8,89.3h-5.2c-0.1,0.2-0.1,0.3-0.1,0.4c0.6,3.4,1.5,6.3,2.6,8.6
		C229.2,96,230.1,93,230.8,89.3z"/>
	<path class="st2" d="M266.4,95.7h-22.6c-0.7,0-1.1-0.4-1.1-1.1c0-0.7,0.4-1.1,1.1-1.1h22.6c0.7,0,1.1,0.4,1.1,1.1
		C267.6,95.4,267.2,95.7,266.4,95.7z"/>
	<path class="st2" d="M276.7,88.8h2.4v-5.2c0-0.6,0.3-1,1-1s1,0.3,1,1v5.2h2c0.6,0,1,0.3,1,0.9c0,0.7-0.3,1-1,1h-2v8l2.2-0.9
		c0.7-0.3,1.1,0,1.2,0.7c0.1,0.6-0.1,0.9-0.6,1.2c-2.5,1.1-4.9,2.1-7,2.9c-0.4,0.1-0.6,0.2-0.8,0.1c-0.2-0.1-0.3-0.4-0.5-0.7
		c-0.2-0.7,0-1.1,0.6-1.3c0.3-0.1,0.8-0.3,1.5-0.6s1.2-0.4,1.5-0.6v-8.7h-2.4c-0.6,0-1-0.3-1-1C275.8,89.1,276.1,88.8,276.7,88.8z
		 M299.6,105.9h-11.5c-0.5,0-0.9-0.1-1.2-0.4c-0.3-0.3-0.4-0.7-0.4-1.2V91.4c-0.5,0.7-0.9,1.3-1.4,2c-0.5,0.6-1,0.7-1.6,0.1
		c-0.5-0.5-0.5-1.1-0.1-1.5c1.9-2.2,3.5-5.2,4.7-8.8c0.2-0.6,0.6-0.9,1.2-0.8c0.7,0.2,0.9,0.6,0.7,1.2c-0.4,1.2-0.9,2.4-1.5,3.8h4
		c0.5-1,1.1-2.4,1.6-4c0.2-0.6,0.6-0.9,1.3-0.7c0.8,0.2,1,0.6,0.6,1.4c-0.4,0.9-0.9,2.1-1.6,3.3h4.4c0.6,0,0.9,0.3,0.9,0.9
		s-0.3,0.9-0.9,0.9h-4.4V93h3.7c0.6,0,0.9,0.3,0.9,0.9c0,0.6-0.3,0.9-0.9,0.9h-3.7v3.6h3.7c0.6,0,0.9,0.3,0.9,0.9
		c0,0.6-0.3,0.9-0.9,0.9h-3.7v3.7h4.9c0.6,0,0.9,0.3,0.9,0.9S300.2,105.9,299.6,105.9z M288.5,93h4.2v-3.6h-4.2V93z M288.5,98.5h4.2
		v-3.6h-4.2V98.5z M292.7,100.3h-4.2v3.1c0,0.4,0.2,0.6,0.6,0.6h3.6V100.3z"/>
	<path class="st2" d="M331.8,104.7h-21.9c-0.7,0-1.1-0.4-1.1-1.1c0-0.7,0.4-1.1,1.1-1.1h21.9c0.7,0,1.1,0.4,1.1,1.1
		C332.9,104.3,332.5,104.7,331.8,104.7z M329.5,88.4h-17.4c-0.7,0-1.1-0.4-1.1-1.1c0-0.7,0.4-1.1,1.1-1.1h17.4
		c0.7,0,1.1,0.4,1.1,1.1C330.5,88,330.2,88.4,329.5,88.4z"/>
	<path class="st2" d="M342.4,96.5h10.3V92h-8.4c-0.6,0-1-0.3-1-1c0-0.6,0.3-1,1-1h8.4v-4.3c-2.8,0.3-5.5,0.5-8.1,0.6
		c-0.5,0-0.9-0.2-1.1-0.8c-0.2-0.7,0.1-1,0.9-1.1c7.7-0.4,13.3-1.1,16.8-2.1c0.4-0.1,0.7,0,1.1,0.4c0.7,0.7,0.6,1.2-0.2,1.4
		c-2.1,0.5-4.5,1-7.3,1.3V90h8.7c0.6,0,1,0.3,1,1c0,0.6-0.3,1-1,1h-8.7v4.5H365c0.7,0,1,0.3,1,1c0,0.7-0.3,1-1,1h-10.2v6.1
		c0,0.7-0.1,1.3-0.3,1.6c-0.2,0.4-0.6,0.6-1.1,0.8c-0.8,0.3-2.2,0.4-4.3,0.4c-0.9,0-1.4-0.3-1.6-0.8c-0.2-0.4-0.1-0.7,0.2-0.9
		c0.3-0.2,0.7-0.3,1.3-0.3c1.8,0,2.8,0,3.1,0c0.3,0,0.5-0.1,0.6-0.2c0.1-0.1,0.2-0.3,0.2-0.6v-6.1h-10.3c-0.7,0-1-0.3-1-1
		C341.4,96.8,341.7,96.5,342.4,96.5z"/>
	<path class="st2" d="M397.9,97.7h-22.7c-0.5,0-0.8-0.3-0.8-0.8c0-0.5,0.3-0.8,0.8-0.8h10.3v-1.6H377c-0.5,0-0.7-0.2-0.7-0.7
		c0-0.5,0.2-0.7,0.7-0.7h8.4v-1.5h-7.7c-0.5,0-0.7-0.2-0.7-0.7c0-0.5,0.2-0.7,0.7-0.7h7.7v-1.6h-10.2c-0.5,0-0.8-0.3-0.8-0.8
		c0-0.5,0.3-0.8,0.8-0.8h10.2v-1.5H378c-0.5,0-0.7-0.2-0.7-0.7c0-0.4,0.2-0.7,0.7-0.7h7.4v-0.9c0-0.7,0.3-1,1-1c0.7,0,1,0.3,1,1v0.9
		h6.2c0.5,0,0.9,0.1,1.2,0.4s0.4,0.7,0.4,1.2v1.3h2.6c0.5,0,0.8,0.3,0.8,0.8c0,0.5-0.3,0.8-0.8,0.8h-2.6v1.6c0,0.4-0.1,0.8-0.4,1
		c-0.3,0.3-0.6,0.4-1,0.4h-6.4v1.5h8.6c0.5,0,0.7,0.2,0.7,0.7c0,0.5-0.2,0.7-0.7,0.7h-8.6v1.6h10.4c0.5,0,0.8,0.3,0.8,0.8
		C398.6,97.5,398.4,97.7,397.9,97.7z M379.5,99h14.2c0.5,0,0.9,0.1,1.2,0.4s0.4,0.7,0.4,1.2v4.4c0,0.5-0.1,0.9-0.4,1.2
		c-0.3,0.3-0.7,0.4-1.2,0.4h-14.2c-0.5,0-0.9-0.1-1.2-0.4c-0.3-0.3-0.4-0.7-0.4-1.2v-4.4c0-0.5,0.1-0.9,0.4-1.2S379,99,379.5,99z
		 M379.9,102.1h13.5V101c0-0.4-0.2-0.6-0.6-0.6h-12.3c-0.4,0-0.6,0.2-0.6,0.6V102.1z M393.4,103.4h-13.5v1.2c0,0.4,0.2,0.6,0.6,0.6
		h12.3c0.4,0,0.6-0.2,0.6-0.6V103.4z M392.7,85.5h-5.2v1.5h5.8v-1C393.3,85.7,393.1,85.5,392.7,85.5z M393.3,88.6h-5.8v1.6h5.2
		c0.4,0,0.6-0.2,0.6-0.6V88.6z"/>
</g>
</svg>
